# xmcd
#
# Track frame offsets: 
#        150
#        13689
#        31249
#        48452
#        66577
#        78424
#        96154
#        110727
#        122684
#        142784
#
# Disc length: 2122 seconds
#
# Revision: 0
# Processed by: cddbd v1.5.2PL0 Copyright (c) Steve Scherf et al.
# Submitted via: ExactAudioCopy v1.0b3
#
DISCID=8408480a
DTITLE=Down East Boys - amen
DYEAR=2011
DGENRE=Gospel
TTITLE0=Every Word in the Word
TTITLE1=Hold On
TTITLE2=I Won't Trade My Crown
TTITLE3=When I Could Do Nothing
TTITLE4=His Beloved The Redeemer
TTITLE5=Suddenly One Morning
TTITLE6=Under the Blood
TTITLE7=Waiting for the Day
TTITLE8=Redemption Draweth Nigh
TTITLE9=Amen
EXTD=
EXTT0=
EXTT1=
EXTT2=
EXTT3=
EXTT4=
EXTT5=
EXTT6=
EXTT7=
EXTT8=
EXTT9=
PLAYORDER=
